<svg width="256" height="256" viewBox="0 0 256 256" fill="none" xmlns="http://www.w3.org/2000/svg">
  <rect x="24" y="24" width="208" height="208" rx="52" fill="#0F172A"/>
  <path d="M88 72H148C177.823 72 202 96.1766 202 126C202 155.823 177.823 180 148 180H88V72Z" fill="#14B8A6"/>
  <path d="M110 96H148C164.569 96 178 109.431 178 126C178 142.569 164.569 156 148 156H110V96Z" fill="#0F172A"/>
  <path d="M150 72H188L118 180H80L150 72Z" fill="#F97316"/>
  <path d="M84 194C84 185.163 91.1634 178 100 178H164C172.837 178 180 185.163 180 194C180 202.837 172.837 210 164 210H100C91.1634 210 84 202.837 84 194Z" fill="#E2E8F0" fill-opacity="0.92"/>
</svg>
